{"accessors" : [{"bufferView" : 0, "byteOffset" : 0, "componentType" : 5123, "count" : 1296, "type" : "SCALAR", "max" : [1295], "min" : [0]}, {"bufferView" : 1, "byteOffset" : 0, "componentType" : 5126, "count" : 1296, "type" : "VEC3", "max" : [35.106842041015625, 5.478427886962891, 35.106842041015625], "min" : [-35.106842041015625, 2.0445899963378906, -35.106842041015625], "name" : "POSITION"}, {"bufferView" : 1, "byteOffset" : 12, "componentType" : 5126, "count" : 1296, "type" : "VEC3", "max" : [1.0000044107437134, 1.0000044107437134, 1.0000044107437134], "min" : [-1.0000044107437134, -1.0000044107437134, -1.0000044107437134], "name" : "NORMAL"}, {"bufferView" : 1, "byteOffset" : 24, "componentType" : 5126, "count" : 1296, "type" : "VEC2", "max" : [0.7012680172920227, -0.1207837462425232], "min" : [0.00703085120767355, -0.9918603897094727], "name" : "TEXCOORD_0"}, {"bufferView" : 0, "byteOffset" : 2592, "componentType" : 5123, "count" : 228, "type" : "SCALAR", "max" : [227], "min" : [0]}, {"bufferView" : 2, "byteOffset" : 0, "componentType" : 5126, "count" : 228, "type" : "VEC3", "max" : [34.43431854248047, 5.311397552490234, 34.44291687011719], "min" : [-34.45161056518555, 4.006275177001953, -34.443016052246094], "name" : "POSITION"}, {"bufferView" : 2, "byteOffset" : 12, "componentType" : 5126, "count" : 228, "type" : "VEC3", "max" : [1.0000044107437134, 1.0000044107437134, 1.0000044107437134], "min" : [-1.0000044107437134, -1.0000044107437134, -1.0000044107437134], "name" : "NORMAL"}, {"bufferView" : 2, "byteOffset" : 24, "componentType" : 5126, "count" : 228, "type" : "VEC2", "max" : [0.9679769277572632, -0.0065561383962631226], "min" : [0.019733773544430733, -0.4850683808326721], "name" : "TEXCOORD_0"}], "asset" : {"generator" : "Aspose.3D 21.12", "version" : "2.0"}, "buffers" : [{"uri" : "data:application/octet-stream;base64,", "byteLength" : 51828}], "bufferViews" : [{"buffer" : 0, "byteOffset" : 0, "byteLength" : 3048, "target" : 34963}, {"buffer" : 0, "byteOffset" : 3052, "byteLength" : 41472, "byteStride" : 32, "target" : 34962}, {"buffer" : 0, "byteOffset" : 44528, "byteLength" : 7296, "byteStride" : 32, "target" : 34962}], "materials" : [{"name" : "", "pbrMetallicRoughness" : {"baseColorFactor" : [0.5, 0.5, 0.5, 1], "metallicFactor" : 0, "roughnessFactor" : 0}, "emissiveFactor" : [0, 0, 0], "alphaMode" : "OPAQUE", "doubleSided" : false}, {"name" : "", "pbrMetallicRoughness" : {"baseColorFactor" : [0.5, 0.5, 0.5, 1], "metallicFactor" : 0, "roughnessFactor" : 0}, "emissiveFactor" : [0, 0, 0], "alphaMode" : "OPAQUE", "doubleSided" : false}], "meshes" : [{"primitives" : [{"attributes" : {"POSITION" : 1, "NORMAL" : 2, "TEXCOORD_0" : 3}, "indices" : 0, "material" : 0, "mode" : 4}, {"attributes" : {"POSITION" : 5, "NORMAL" : 6, "TEXCOORD_0" : 7}, "indices" : 4, "material" : 1, "mode" : 4}], "name" : ""}], "nodes" : [{"mesh" : 0, "name" : "shelf_0101_w600_d400_bot"}], "scene" : 0, "scenes" : [{"nodes" : [0]}]}